<svg id="Layer_1" xmlns="http://www.w3.org/2000/svg" viewBox="0 0 941.9 219.8"><style>.st0{fill:#333}.st1{fill:#fe7e17}</style><path class="st0" d="M461 159.1V111h17.6v87.5c-3.1.5-5.5-.3-7.3-2.9-.1-.2-.3-.3-.4-.4-3.5-3.6-7-7.1-10.5-10.7-4.4-4.5-8.9-9-13.3-13.5-4-4.1-8-8.3-11.9-12.4-3.1-3.3-6.2-6.6-9.3-10-.3-.3-.7-.7-1.3-1.2-.1.7-.2 1.2-.2 1.7v49.5h-17v-87.7c2.8-.2 5.4-.2 7.7 2.1 5.8 6.1 11.8 12 17.7 17.9 6.1 6.2 12.3 12.4 18.4 18.7l8.4 8.7c.4.4.7.7 1.1 1 0-.1.2-.2.3-.2zm-353.8-13.9h7c5.7.1 9.9-5.9 8.3-11.3-1.1-3.8-5-6.6-8.8-6.5-5 .1-10 0-15 0h-1.4v70.2H79.7v-87.8h1.4c10.8 0 21.5.1 32.3-.1 3.7 0 7 1 10.3 2.2 3.4 1.2 6.2 3.2 8.7 5.7 3.9 3.9 6.4 8.6 7.5 14 1.2 6.1.4 11.9-2.6 17.3-2.4 4.3-5.6 7.8-9.8 10.3-.8.5-1.6 1.1-2.5 1.6 5.8 12.5 11.5 25 17.3 37.5-.4 0-.8.1-1.2.1h-15.2c-1.3 0-2.1-.4-2.7-1.6-3.2-7-6.3-13.9-9.6-20.9-1.2-2.7-2.7-5.2-3.9-7.9-1.4-2.9-2.1-6-2.2-9.2 0-1.7-.2-3.5-.2-5.2s.2-3.4.2-5.1c0-.9-.2-2-.3-3.3zm106.6 53.4h-57.7v-87.8h58.2V128h-40.9v16h33.7v17.6h-33.4V181h40.1v17.6zM852.4 111H870v55.5c0 7.1-1.9 13.6-6 19.4-5.3 7.6-12.6 12.3-21.8 14-2.3.4-4.7.7-7.1.7-4.4-.1-8.7-1.2-12.8-2.9-4.7-2-8.7-4.9-12-8.7-2.9-3.2-5.1-6.9-6.7-11-1.4-3.5-1.9-7.1-1.9-10.9v-56.2h17.4v1.5c0 18.2-.1 36.3.1 54.5.1 5.9 2.9 10.5 8 13.8 2.7 1.7 5.7 2.6 8.8 2.5 7.9-.1 14.6-5.3 16.2-13.3.1-.7.2-1.5.2-2.2V111zm48.9 17v15.9h33.4v17.6H901v36.9h-17.3v-87.7h58.2v17.2c-13.5.2-27 .1-40.6.1zM65.7 110.5v17.3H41.8v70.5H24.4v-70.2H0v-17.5c21.9-.1 43.8-.1 65.7-.1zm240.8 88V111h17v70.2h32.6v17.3h-49.6zm66.7-87.8h16.9v87.8h-16.9v-87.8z"/><path class="st1" d="M260 181.3h27.5c1.2 0 1.5.3 1.5 1.5-.1 4.8-.1 9.5 0 14.3 0 1.1-.3 1.4-1.4 1.4h-55.2c-1.1 0-1.4-.3-1.4-1.4.1-4.8.1-9.6 0-14.4 0-1.1.3-1.4 1.4-1.4H260zm.3-70.4H288c1.2 0 1.5.3 1.5 1.5-.1 4.7-.1 9.4 0 14 0 1.1-.3 1.4-1.4 1.4h-55.7c-1.1 0-1.4-.3-1.4-1.4.1-4.7.1-9.4 0-14.2 0-1.1.3-1.4 1.4-1.4 9.3.2 18.6.1 27.9.1zm-4.9 33.9h22.7c1.1 0 1.4.3 1.4 1.4-.1 4.8-.1 9.6 0 14.4 0 1.1-.3 1.4-1.4 1.4h-45.6c-1.1 0-1.4-.3-1.4-1.4.1-4.8.1-9.6 0-14.4 0-1.1.3-1.4 1.4-1.4h22.9zm269.3 53.8h-27.5c-1.1 0-1.4-.3-1.4-1.4.1-4.9 0-9.8 0-14.6 0-1 .3-1.3 1.3-1.3h55.3c1 0 1.3.3 1.3 1.3 0 4.9-.1 9.8 0 14.6 0 1.1-.3 1.4-1.4 1.4h-27.6zm.4-87.9h27.6c1.2 0 1.5.3 1.5 1.5-.1 4.8-.1 9.5 0 14.3 0 1.1-.3 1.4-1.4 1.4h-55.7c-1.1 0-1.4-.3-1.4-1.4.1-4.8.1-9.6 0-14.4 0-1.1.3-1.4 1.4-1.4h28zm-5 34.1h22.7c1.1 0 1.4.3 1.4 1.4-.1 4.8-.1 9.6 0 14.4 0 1.1-.3 1.4-1.4 1.4h-45.6c-1.1 0-1.4-.3-1.4-1.4.1-4.8.1-9.6 0-14.4 0-1.1.3-1.4 1.4-1.4h22.9z"/><path class="st0" d="M703.8 155.5c5.7-1.9 11.3-3.8 16.9-5.6.2-.1.4-.2.6-.2.2 0 .5.1.7.1-.1.2-.1.5-.3.7-1.7 1.6-3.5 3.1-5.2 4.8-3.4 3.4-6.7 6.9-10.1 10.3-1.9 1.9-1.8 4-1.4 6.4.6 3.4 1.1 6.8 1.6 10.1.7 4.1 1.3 8.3 2.1 12.4.7 3.5 1.5 6.9 2.4 10.3 1.3 4.9 3.5 9.4 6.3 13.7.2.4.4.8.7 1.3h-58.5c2-2.8 4.1-5.6 6-8.5 2.4-3.7 4.3-7.7 5.9-11.9 1.7-4.6 2.8-9.4 3.5-14.3.3-2.1.6-4.2.7-6.3.3-3.3-1-6-2.8-8.7-3.8-5.9-7.5-12-11.2-18-.3-.5-.5-1-.9-1.7 3.1 1.6 5.9 3.1 8.8 4.5 3 1.5 6 2.9 9 4.2 1.1.5 2.4.6 3.7.7 1.5.1 1.9-.4 1.4-2-.3-1.1-.7-2.2-1-3.3-.8-3-1.5-6.1-2.2-9.2-.1-.2 0-.5 0-1 3.4 3 6.7 6 10.1 9 4-8 7.9-15.9 12-24 .1 1.5.2 2.7.3 3.9l.3 13.2c.1 2.5.1 5.1.2 7.6.1.6.2 1 .4 1.5z"/><path class="st1" d="M678.8 0c.1.4.1.8.3 1.1 2 4.1 4.1 8.1 6.2 12.1 2.2 4.2 1.2 8.9-2.6 11.7-.3.2-.6.3-.8.4.1-2 .2-3.9.2-5.9s-1.1-3.6-2.5-5.1c.9 3.8 1.3 7.5 0 11.3-2.4-1.3-4.1-3.4-5.4-5.7-2.1-3.9-2.1-7.7-.1-11.6 1.3-2.5 2.4-5 3.6-7.5.1-.2.1-.5.1-.8h1zm-6.6 146.7c-1 .2-1.8.3-2.5.4-6.1.8-12.1.8-18-1.4-4-1.5-7.7-.7-11.4.8-6.4 2.5-12.3 1.6-17.2-3.1-7.8-7.5-15.4-15.3-23-22.9-.1-.1-.1-.2-.3-.4 9-3.2 18-5.2 27.9-4.5-4.2-15.5-8.3-30.8-12.4-46.4 1.6.4 3.1.7 4.5 1.1 6.1 1.7 12.3 3.2 18.3 5.2 8.6 2.8 16.6 6.9 23.7 12.4 4 3.1 7.6 6.7 9.9 11.3.7 1.4.9 2.7 0 4.2-1.4 2.5-1.7 5.3-2 8-.1 1.3-.3 2.5-.4 3.8 0 .2-.1.5 0 .7.3.7.6 1.3.9 1.9.3-.5.7-1 .9-1.5 1.1-3 2.1-6 3.2-9.3 1.5 4 2.3 7.8 2.9 11.7 1.1 8 .8 15.9.1 24.2-2-1-4-1.8-5.8-2.8-3.7-2.2-7.2-4.8-10.1-7.9-4.1-4.4-7.4-9.3-9.7-14.9-1-2.3-2.1-4.6-3.2-6.9-.9-1.9-1.7-3.8-2.6-5.7-.2-.5-.5-.8-.8-1.3-.2.1-.4.2-.6.2.7 2.9 1.3 5.8 2 8.7 1.2 4.6 2.5 9.3 3.9 13.8 1 3.4 2.7 6.3 5.1 8.9 3.8 4.1 8.4 7 13.2 9.7 1.1.7 2.2 1.3 3.5 2zm-31.3-5.2c-4.1-5-9.6-7.6-14.9-11.1.8 4 10.4 11.1 14.9 11.1zm53.5-21.6c3.2-2.1 6.3-4 9.3-5.9 5.2-3.3 9.3-7.6 11.6-13.4 1.4-3.7 2.4-7.5 3.4-11.4 1-3.8 1.7-7.6 2.5-11.5.1-.4 0-.9-.1-1.4h-.3c-1.2 2.7-2.3 5.5-3.5 8.2-2.8 6.6-6 12.9-10.5 18.5-3.5 4.4-7.9 7.8-12.8 10.5-1.2.7-2.5 1.3-3.7 1.9-.4.2-.9.2-1.4.4-1.8-14.9-.9-29.3 5.4-43.2 1.3 1.6 2.4 3.1 3.6 4.5 1.2 1.3 2.5 2.6 3.7 3.9.2.2.5.1.8.2 0-.3.2-.6.1-.8-.9-2.1-1.9-4.1-2.8-6.2-.6-1.3-1.2-2.7-1.8-4-.6-1.1-.2-2.1.5-3 3.2-4 7.1-7.2 11.4-9.8 7-4.2 14.4-7.5 22.3-9.9 5.9-1.8 11.9-3.1 17.9-4.7.2-.1.4.1.8.1-.6 2.4-1.2 4.7-1.8 6.9-1.9 7.1-3.8 14.1-5.7 21.2-2.4 8.8-4.7 17.7-7.1 26.5-1.5 5.5-3.9 10.4-8.1 14.3-3.5 3.2-7.5 5.3-11.9 6.8-3.4 1.1-6.9 2.1-10.6 2.1-3.2 0-6.4-.1-9.6-.3-.5-.1-1-.4-1.6-.5zM638.8 14.5c3.7 1.5 7.3 2.8 10.8 4.3 5 2.2 9.9 4.7 14.4 7.9 4.3 3.1 8.3 6.4 11.3 10.9 2.1 3.2 3.2 6.9 4 10.6.9 4.4.9 8.9.6 13.3-.2 3.9-1.1 7.7-1.7 11.5-.1.4-.3.7-.5 1.3-1.4-.8-2.7-1.6-3.9-2.4-4.9-3.6-8.5-8.4-10.9-13.9-1.9-4.3-3.2-8.9-4.8-13.3-.1-.2-.1-.3-.5-.5 0 1.1-.1 2.1 0 3.2.3 2.9.5 5.8 1 8.6.8 4.9 2.6 9.4 5.8 13.4 2.4 3 5.4 5.2 8.9 7.3-2.2 0-4.1.2-6.1 0-3-.3-6-1-8.8-2.3-7-3.4-12.1-8.3-13.6-16.2-.8-4.7-1.5-9.4-2.2-14.1-.7-5-1.5-10-2.1-15-.6-4.9-1.1-9.7-1.7-14.6zM723 8.6c-1.1 4-2 7.6-3 11.2-1.7 6.5-3.4 13-5.3 19.4-1.8 5.9-6.1 9.2-12 10.3-2.9.6-6 .5-9.1.5 8.9-4.3 12.3-11.8 12.9-21-.4.7-.7 1.4-1.1 2.1-2 4.3-4.3 8.3-7.7 11.7-2.2 2.1-4.7 3.6-7.6 4.8-.1-1.2-.3-2.2-.4-3.3-.1-5.2.1-10.4 1.6-15.5 1.7-5.7 5.4-9.7 10.4-12.6 5.2-3 10.7-5.1 16.4-6.5 1.6-.5 3.1-.8 4.9-1.1zM607 20c1.5.6 2.9 1.1 4.3 1.6 4.7 1.9 9.1 4.2 12.9 7.5 3.5 3 5.9 6.6 6 11.3.1 4.6 0 9.1 0 13.7-.2.1-.3.2-.5.3-1.2-.9-2.5-1.6-3.7-2.6-3.4-2.8-5.1-6.7-6.7-10.7-.4-1.1-.9-2.2-1.5-3.3-.2 3.5.2 6.8 1.6 10 1.4 3.2 3.8 5.6 6.9 7.4-5.1 1.1-11.5-1.8-14.1-6.2-1.6-2.7-2.1-5.7-2.5-8.7-.6-4.3-1.3-8.5-1.9-12.8-.2-2.5-.5-4.9-.8-7.5zm154 107.1c-1.8 1.3-3.5 2.4-5.2 3.7-4.4 3.1-8.8 6.4-13.3 9.4-3.6 2.4-7.5 2.5-11.4.7-2.4-1.1-4.3-2.7-6.2-4.8 3.2.9 6.2 1.1 9.2.1 2.9-1 5.4-2.6 7.5-4.8 0-.1-.1-.2-.1-.3-.3.1-.7.1-1 .2-2.5.8-4.9 1.8-7.4 2.5-2.9.8-5.7.4-8.6-.9.8-1 1.5-2 2.2-2.9 2.7-3.3 5.7-6.2 9.6-8.1 2.7-1.3 5.5-1.5 8.5-1.1 5.2.8 10.1 2.7 14.7 5.2.3.2.6.3.8.5.1.2.4.4.7.6zm-13.8-22.8c5.3-.4 8.5-3.8 8.6-6.2-2.7 2.6-6 3.7-9.8 4.5.8-2 1.4-3.9 2.3-5.7 1.4-2.7 3.4-4.9 6.4-6 1.9-.7 3.9-.7 5.9-.6 1.8.1 3.6.3 5.4.5.8.1 1.7.4 2.5.5-.4.7-.7 1.5-1.2 2.1-2.1 2.5-4.2 5.1-6.3 7.6-1 1.2-2 2.6-3.2 3.6-3.2 2.7-7.5 2.1-10.6-.3z"/><path class="st1" d="M602.4 93.1c1.4 4.1 5.2 4.7 8.8 5.9-1.9 1.7-4 2.3-6.3 2-3-.4-5-2.2-6.7-4.5-2.3-3-4.6-6-7-9-.4-.5-1-.9-1.7-1.6 1.5-.2 2.7-.3 3.8-.4 3-.1 5.9-.3 8.9-.2 2.2.1 4.1 1.3 5.6 2.9 2.3 2.4 3.6 5.4 4.9 8.4-2.4.8-4.4-.1-6.3-1.3-1.3-.8-2.5-1.7-3.7-2.6-.1.2-.2.3-.3.4zm132.8-55.8c3.9-2.9 4.9-8.2 4-10.9-1.5 3.7-2.2 7.5-6 9.7-.3-1.2-.7-2.3-.9-3.4-.7-3.2-.6-6.4 1-9.4 1.5-2.8 3.9-4.5 6.6-6 1.6-.8 3.3-1.6 5.2-2.5 0 1.6.1 2.9 0 4.2-.1 2.1-.3 4.1-.5 6.2s-.3 4.2-.7 6.2c-.6 3.1-3.5 5.4-6.6 5.5-.5.2-1.1.3-2.1.4zm11 39.6c-.5-4.8 1.1-8.5 4.5-11.4 4.7-4 11.4-4.8 14.4-3.8-1.4 2.8-2.7 5.6-4 8.3-.6 1.2-1.3 2.5-1.8 3.8-1.8 4.6-5.5 5.8-9.8 5.2-.6-.1-1.2-.3-2.2-.5 4.5-1.3 6.8-4.2 7.8-8.4-2.2 3.1-5.3 5.1-8.9 6.8z"/></svg>