<?xml version="1.0" encoding="utf-8"?>
<!-- Generator: Adobe Illustrator 21.0.2, SVG Export Plug-In . SVG Version: 6.00 Build 0)  -->
<svg version="1.1" id="Layer_1" xmlns="http://www.w3.org/2000/svg" xmlns:xlink="http://www.w3.org/1999/xlink" x="0px" y="0px"
	 viewBox="0 0 941.9 219.8" style="enable-background:new 0 0 941.9 219.8;" xml:space="preserve">
<style type="text/css">
	.st0{fill:#333333;}
	.st1{fill:#FE7E17;}
</style>
<path class="st0" d="M461,159.1c0-16,0-32,0-48.1c5.9,0,11.7,0,17.6,0c0,29.2,0,58.3,0,87.5c-3.1,0.5-5.5-0.3-7.3-2.9
	c-0.1-0.2-0.3-0.3-0.4-0.4c-3.5-3.6-7-7.1-10.5-10.7c-4.4-4.5-8.9-9-13.3-13.5c-4-4.1-8-8.3-11.9-12.4c-3.1-3.3-6.2-6.6-9.3-10
	c-0.3-0.3-0.7-0.7-1.3-1.2c-0.1,0.7-0.2,1.2-0.2,1.7c0,16,0,32,0,48c0,0.5,0,0.9,0,1.5c-5.7,0-11.3,0-17,0c0-29.2,0-58.4,0-87.7
	c2.8-0.2,5.4-0.2,7.7,2.1c5.8,6.1,11.8,12,17.7,17.9c6.1,6.2,12.3,12.4,18.4,18.7c2.8,2.9,5.6,5.8,8.4,8.7c0.4,0.4,0.7,0.7,1.1,1
	C460.7,159.2,460.9,159.1,461,159.1z"/>
<path class="st0" d="M107.2,145.2c2.5,0,4.8,0,7,0c5.7,0.1,9.9-5.9,8.3-11.3c-1.1-3.8-5-6.6-8.8-6.5c-5,0.1-10,0-15,0
	c-0.4,0-0.9,0-1.4,0c0,23.4,0,46.8,0,70.2c-5.9,0-11.7,0-17.6,0c0-29.2,0-58.4,0-87.8c0.5,0,1,0,1.4,0c10.8,0,21.5,0.1,32.3-0.1
	c3.7,0,7,1,10.3,2.2c3.4,1.2,6.2,3.2,8.7,5.7c3.9,3.9,6.4,8.6,7.5,14c1.2,6.1,0.4,11.9-2.6,17.3c-2.4,4.3-5.6,7.8-9.8,10.3
	c-0.8,0.5-1.6,1.1-2.5,1.6c5.8,12.5,11.5,25,17.3,37.5c-0.4,0-0.8,0.1-1.2,0.1c-5.1,0-10.2,0-15.2,0c-1.3,0-2.1-0.4-2.7-1.6
	c-3.2-7-6.3-13.9-9.6-20.9c-1.2-2.7-2.7-5.2-3.9-7.9c-1.4-2.9-2.1-6-2.2-9.2c0-1.7-0.2-3.5-0.2-5.2s0.2-3.4,0.2-5.1
	C107.5,147.6,107.3,146.5,107.2,145.2z"/>
<path class="st0" d="M213.8,198.6c-19.3,0-38.5,0-57.7,0c0-29.3,0-58.5,0-87.8c19.4,0,38.7,0,58.2,0c0,5.7,0,11.4,0,17.2
	c-13.6,0-27.2,0-40.9,0c0,5.4,0,10.6,0,16c11.2,0,22.4,0,33.7,0c0,5.9,0,11.7,0,17.6c-11.1,0-22.2,0-33.4,0c0,6.5,0,12.9,0,19.4
	c13.4,0,26.7,0,40.1,0C213.8,186.9,213.8,192.6,213.8,198.6z"/>
<path class="st0" d="M852.4,111c5.9,0,11.7,0,17.6,0c0,0.6,0,1.1,0,1.6c0,18,0,35.9,0,53.9c0,7.1-1.9,13.6-6,19.4
	c-5.3,7.6-12.6,12.3-21.8,14c-2.3,0.4-4.7,0.7-7.1,0.7c-4.4-0.1-8.7-1.2-12.8-2.9c-4.7-2-8.7-4.9-12-8.7c-2.9-3.2-5.1-6.9-6.7-11
	c-1.4-3.5-1.9-7.1-1.9-10.9c0-18.2,0-36.4,0-54.6c0-0.5,0-1,0-1.6c5.8,0,11.5,0,17.4,0c0,0.5,0,1,0,1.5c0,18.2-0.1,36.3,0.1,54.5
	c0.1,5.9,2.9,10.5,8,13.8c2.7,1.7,5.7,2.6,8.8,2.5c7.9-0.1,14.6-5.3,16.2-13.3c0.1-0.7,0.2-1.5,0.2-2.2c0-18.3,0-36.6,0-55
	C852.4,112.1,852.4,111.6,852.4,111z"/>
<path class="st0" d="M901.3,128c0,5.4,0,10.6,0,15.9c11.1,0,22.2,0,33.4,0c0,5.9,0,11.7,0,17.6c-11.2,0-22.4,0-33.7,0
	c0,12.4,0,24.6,0,36.9c-5.8,0-11.5,0-17.3,0c0-29.2,0-58.4,0-87.7c19.4,0,38.8,0,58.2,0c0,5.6,0,11.3,0,17.2
	C928.4,128.1,914.9,128,901.3,128z"/>
<path class="st0" d="M65.7,110.5c0,5.8,0,11.4,0,17.3c-8,0-15.9,0-23.9,0c0,23.6,0,47,0,70.5c-5.8,0-11.5,0-17.4,0
	c0-23.4,0-46.7,0-70.2c-8.2,0-16.3,0-24.4,0c0-5.9,0-11.7,0-17.5C21.9,110.5,43.8,110.5,65.7,110.5z"/>
<path class="st0" d="M306.5,198.5c0-29.2,0-58.3,0-87.5c5.6,0,11.3,0,17,0c0,23.3,0,46.7,0,70.2c10.9,0,21.7,0,32.6,0
	c0,5.8,0,11.5,0,17.3C339.6,198.5,323.1,198.5,306.5,198.5z"/>
<path class="st0" d="M373.2,110.7c5.7,0,11.3,0,16.9,0c0,29.3,0,58.5,0,87.8c-5.6,0-11.2,0-16.9,0
	C373.2,169.3,373.2,140.1,373.2,110.7z"/>
<g>
	<path class="st1" d="M260,181.3c9.2,0,18.3,0,27.5,0c1.2,0,1.5,0.3,1.5,1.5c-0.1,4.8-0.1,9.5,0,14.3c0,1.1-0.3,1.4-1.4,1.4
		c-18.4,0-36.8,0-55.2,0c-1.1,0-1.4-0.3-1.4-1.4c0.1-4.8,0.1-9.6,0-14.4c0-1.1,0.3-1.4,1.4-1.4C241.6,181.3,250.8,181.3,260,181.3z"
		/>
	<path class="st1" d="M260.3,110.9c9.2,0,18.5,0,27.7,0c1.2,0,1.5,0.3,1.5,1.5c-0.1,4.7-0.1,9.4,0,14c0,1.1-0.3,1.4-1.4,1.4
		c-18.6,0-37.1,0-55.7,0c-1.1,0-1.4-0.3-1.4-1.4c0.1-4.7,0.1-9.4,0-14.2c0-1.1,0.3-1.4,1.4-1.4C241.7,111,251,110.9,260.3,110.9z"/>
	<path class="st1" d="M255.4,144.8c7.6,0,15.1,0,22.7,0c1.1,0,1.4,0.3,1.4,1.4c-0.1,4.8-0.1,9.6,0,14.4c0,1.1-0.3,1.4-1.4,1.4
		c-15.2,0-30.4,0-45.6,0c-1.1,0-1.4-0.3-1.4-1.4c0.1-4.8,0.1-9.6,0-14.4c0-1.1,0.3-1.4,1.4-1.4C240.1,144.8,247.7,144.8,255.4,144.8
		z"/>
</g>
<g>
	<path class="st1" d="M524.7,198.6c-9.2,0-18.3,0-27.5,0c-1.1,0-1.4-0.3-1.4-1.4c0.1-4.9,0-9.8,0-14.6c0-1,0.3-1.3,1.3-1.3
		c18.4,0,36.9,0,55.3,0c1,0,1.3,0.3,1.3,1.3c0,4.9-0.1,9.8,0,14.6c0,1.1-0.3,1.4-1.4,1.4C543.1,198.6,533.9,198.6,524.7,198.6z"/>
	<path class="st1" d="M525.1,110.7c9.2,0,18.4,0,27.6,0c1.2,0,1.5,0.3,1.5,1.5c-0.1,4.8-0.1,9.5,0,14.3c0,1.1-0.3,1.4-1.4,1.4
		c-18.6,0-37.1,0-55.7,0c-1.1,0-1.4-0.3-1.4-1.4c0.1-4.8,0.1-9.6,0-14.4c0-1.1,0.3-1.4,1.4-1.4C506.5,110.7,515.8,110.7,525.1,110.7
		z"/>
	<path class="st1" d="M520.1,144.8c7.6,0,15.1,0,22.7,0c1.1,0,1.4,0.3,1.4,1.4c-0.1,4.8-0.1,9.6,0,14.4c0,1.1-0.3,1.4-1.4,1.4
		c-15.2,0-30.4,0-45.6,0c-1.1,0-1.4-0.3-1.4-1.4c0.1-4.8,0.1-9.6,0-14.4c0-1.1,0.3-1.4,1.4-1.4C504.8,144.8,512.4,144.8,520.1,144.8
		z"/>
</g>
<path class="st0" d="M703.8,155.5c5.7-1.9,11.3-3.8,16.9-5.6c0.2-0.1,0.4-0.2,0.6-0.2c0.2,0,0.5,0.1,0.7,0.1
	c-0.1,0.2-0.1,0.5-0.3,0.7c-1.7,1.6-3.5,3.1-5.2,4.8c-3.4,3.4-6.7,6.9-10.1,10.3c-1.9,1.9-1.8,4-1.4,6.4c0.6,3.4,1.1,6.8,1.6,10.1
	c0.7,4.1,1.3,8.3,2.1,12.4c0.7,3.5,1.5,6.9,2.4,10.3c1.3,4.9,3.5,9.4,6.3,13.7c0.2,0.4,0.4,0.8,0.7,1.3c-19.6,0-39.1,0-58.5,0
	c2-2.8,4.1-5.6,6-8.5c2.4-3.7,4.3-7.7,5.9-11.9c1.7-4.6,2.8-9.4,3.5-14.3c0.3-2.1,0.6-4.2,0.7-6.3c0.3-3.3-1-6-2.8-8.7
	c-3.8-5.9-7.5-12-11.2-18c-0.3-0.5-0.5-1-0.9-1.7c3.1,1.6,5.9,3.1,8.8,4.5c3,1.5,6,2.9,9,4.2c1.1,0.5,2.4,0.6,3.7,0.7
	c1.5,0.1,1.9-0.4,1.4-2c-0.3-1.1-0.7-2.2-1-3.3c-0.8-3-1.5-6.1-2.2-9.2c-0.1-0.2,0-0.5,0-1c3.4,3,6.7,6,10.1,9c4-8,7.9-15.9,12-24
	c0.1,1.5,0.2,2.7,0.3,3.9c0.1,4.4,0.2,8.8,0.3,13.2c0.1,2.5,0.1,5.1,0.2,7.6C703.5,154.6,703.6,155,703.8,155.5z"/>
<g>
	<path class="st1" d="M678.8,0c0.1,0.4,0.1,0.8,0.3,1.1c2,4.1,4.1,8.1,6.2,12.1c2.2,4.2,1.2,8.9-2.6,11.7c-0.3,0.2-0.6,0.3-0.8,0.4
		c0.1-2,0.2-3.9,0.2-5.9s-1.1-3.6-2.5-5.1c0.9,3.8,1.3,7.5,0,11.3c-2.4-1.3-4.1-3.4-5.4-5.7c-2.1-3.9-2.1-7.7-0.1-11.6
		c1.3-2.5,2.4-5,3.6-7.5c0.1-0.2,0.1-0.5,0.1-0.8C678.2,0,678.5,0,678.8,0z"/>
	<path class="st1" d="M672.2,146.7c-1,0.2-1.8,0.3-2.5,0.4c-6.1,0.8-12.1,0.8-18-1.4c-4-1.5-7.7-0.7-11.4,0.8
		c-6.4,2.5-12.3,1.6-17.2-3.1c-7.8-7.5-15.4-15.3-23-22.9c-0.1-0.1-0.1-0.2-0.3-0.4c9-3.2,18-5.2,27.9-4.5
		c-4.2-15.5-8.3-30.8-12.4-46.4c1.6,0.4,3.1,0.7,4.5,1.1c6.1,1.7,12.3,3.2,18.3,5.2c8.6,2.8,16.6,6.9,23.7,12.4
		c4,3.1,7.6,6.7,9.9,11.3c0.7,1.4,0.9,2.7,0,4.2c-1.4,2.5-1.7,5.3-2,8c-0.1,1.3-0.3,2.5-0.4,3.8c0,0.2-0.1,0.5,0,0.7
		c0.3,0.7,0.6,1.3,0.9,1.9c0.3-0.5,0.7-1,0.9-1.5c1.1-3,2.1-6,3.2-9.3c1.5,4,2.3,7.8,2.9,11.7c1.1,8,0.8,15.9,0.1,24.2
		c-2-1-4-1.8-5.8-2.8c-3.7-2.2-7.2-4.8-10.1-7.9c-4.1-4.4-7.4-9.3-9.7-14.9c-1-2.3-2.1-4.6-3.2-6.9c-0.9-1.9-1.7-3.8-2.6-5.7
		c-0.2-0.5-0.5-0.8-0.8-1.3c-0.2,0.1-0.4,0.2-0.6,0.2c0.7,2.9,1.3,5.8,2,8.7c1.2,4.6,2.5,9.3,3.9,13.8c1,3.4,2.7,6.3,5.1,8.9
		c3.8,4.1,8.4,7,13.2,9.7C669.8,145.4,670.9,146,672.2,146.7z M640.9,141.5c-4.1-5-9.6-7.6-14.9-11.1
		C626.8,134.4,636.4,141.5,640.9,141.5z"/>
	<path class="st1" d="M694.4,119.9c3.2-2.1,6.3-4,9.3-5.9c5.2-3.3,9.3-7.6,11.6-13.4c1.4-3.7,2.4-7.5,3.4-11.4
		c1-3.8,1.7-7.6,2.5-11.5c0.1-0.4,0-0.9-0.1-1.4c-0.1,0-0.2,0-0.3,0c-1.2,2.7-2.3,5.5-3.5,8.2c-2.8,6.6-6,12.9-10.5,18.5
		c-3.5,4.4-7.9,7.8-12.8,10.5c-1.2,0.7-2.5,1.3-3.7,1.9c-0.4,0.2-0.9,0.2-1.4,0.4c-1.8-14.9-0.9-29.3,5.4-43.2
		c1.3,1.6,2.4,3.1,3.6,4.5c1.2,1.3,2.5,2.6,3.7,3.9c0.2,0.2,0.5,0.1,0.8,0.2c0-0.3,0.2-0.6,0.1-0.8c-0.9-2.1-1.9-4.1-2.8-6.2
		c-0.6-1.3-1.2-2.7-1.8-4c-0.6-1.1-0.2-2.1,0.5-3c3.2-4,7.1-7.2,11.4-9.8c7-4.2,14.4-7.5,22.3-9.9c5.9-1.8,11.9-3.1,17.9-4.7
		c0.2-0.1,0.4,0.1,0.8,0.1c-0.6,2.4-1.2,4.7-1.8,6.9c-1.9,7.1-3.8,14.1-5.7,21.2c-2.4,8.8-4.7,17.7-7.1,26.5
		c-1.5,5.5-3.9,10.4-8.1,14.3c-3.5,3.2-7.5,5.3-11.9,6.8c-3.4,1.1-6.9,2.1-10.6,2.1c-3.2,0-6.4-0.1-9.6-0.3
		C695.5,120.3,695,120,694.4,119.9z"/>
	<path class="st1" d="M638.8,14.5c3.7,1.5,7.3,2.8,10.8,4.3c5,2.2,9.9,4.7,14.4,7.9c4.3,3.1,8.3,6.4,11.3,10.9
		c2.1,3.2,3.2,6.9,4,10.6c0.9,4.4,0.9,8.9,0.6,13.3c-0.2,3.9-1.1,7.7-1.7,11.5c-0.1,0.4-0.3,0.7-0.5,1.3c-1.4-0.8-2.7-1.6-3.9-2.4
		c-4.9-3.6-8.5-8.4-10.9-13.9c-1.9-4.3-3.2-8.9-4.8-13.3c-0.1-0.2-0.1-0.3-0.5-0.5c0,1.1-0.1,2.1,0,3.2c0.3,2.9,0.5,5.8,1,8.6
		c0.8,4.9,2.6,9.4,5.8,13.4c2.4,3,5.4,5.2,8.9,7.3c-2.2,0-4.1,0.2-6.1,0c-3-0.3-6-1-8.8-2.3c-7-3.4-12.1-8.3-13.6-16.2
		c-0.8-4.7-1.5-9.4-2.2-14.1c-0.7-5-1.5-10-2.1-15C639.9,24.2,639.4,19.4,638.8,14.5z"/>
	<path class="st1" d="M723,8.6c-1.1,4-2,7.6-3,11.2c-1.7,6.5-3.4,13-5.3,19.4c-1.8,5.9-6.1,9.2-12,10.3c-2.9,0.6-6,0.5-9.1,0.5
		c8.9-4.3,12.3-11.8,12.9-21c-0.4,0.7-0.7,1.4-1.1,2.1c-2,4.3-4.3,8.3-7.7,11.7c-2.2,2.1-4.7,3.6-7.6,4.8c-0.1-1.2-0.3-2.2-0.4-3.3
		c-0.1-5.2,0.1-10.4,1.6-15.5c1.7-5.7,5.4-9.7,10.4-12.6c5.2-3,10.7-5.1,16.4-6.5C719.7,9.2,721.2,8.9,723,8.6z"/>
	<path class="st1" d="M607,20c1.5,0.6,2.9,1.1,4.3,1.6c4.7,1.9,9.1,4.2,12.9,7.5c3.5,3,5.9,6.6,6,11.3c0.1,4.6,0,9.1,0,13.7
		c-0.2,0.1-0.3,0.2-0.5,0.3c-1.2-0.9-2.5-1.6-3.7-2.6c-3.4-2.8-5.1-6.7-6.7-10.7c-0.4-1.1-0.9-2.2-1.5-3.3c-0.2,3.5,0.2,6.8,1.6,10
		c1.4,3.2,3.8,5.6,6.9,7.4c-5.1,1.1-11.5-1.8-14.1-6.2c-1.6-2.7-2.1-5.7-2.5-8.7c-0.6-4.3-1.3-8.5-1.9-12.8
		C607.6,25,607.3,22.6,607,20z"/>
	<path class="st1" d="M761,127.1c-1.8,1.3-3.5,2.4-5.2,3.7c-4.4,3.1-8.8,6.4-13.3,9.4c-3.6,2.4-7.5,2.5-11.4,0.7
		c-2.4-1.1-4.3-2.7-6.2-4.8c3.2,0.9,6.2,1.1,9.2,0.1c2.9-1,5.4-2.6,7.5-4.8c0-0.1-0.1-0.2-0.1-0.3c-0.3,0.1-0.7,0.1-1,0.2
		c-2.5,0.8-4.9,1.8-7.4,2.5c-2.9,0.8-5.7,0.4-8.6-0.9c0.8-1,1.5-2,2.2-2.9c2.7-3.3,5.7-6.2,9.6-8.1c2.7-1.3,5.5-1.5,8.5-1.1
		c5.2,0.8,10.1,2.7,14.7,5.2c0.3,0.2,0.6,0.3,0.8,0.5C760.4,126.7,760.7,126.9,761,127.1z"/>
	<path class="st1" d="M747.2,104.3c5.3-0.4,8.5-3.8,8.6-6.2c-2.7,2.6-6,3.7-9.8,4.5c0.8-2,1.4-3.9,2.3-5.7c1.4-2.7,3.4-4.9,6.4-6
		c1.9-0.7,3.9-0.7,5.9-0.6c1.8,0.1,3.6,0.3,5.4,0.5c0.8,0.1,1.7,0.4,2.5,0.5c-0.4,0.7-0.7,1.5-1.2,2.1c-2.1,2.5-4.2,5.1-6.3,7.6
		c-1,1.2-2,2.6-3.2,3.6C754.6,107.3,750.3,106.7,747.2,104.3z"/>
	<path class="st1" d="M602.4,93.1c1.4,4.1,5.2,4.7,8.8,5.9c-1.9,1.7-4,2.3-6.3,2c-3-0.4-5-2.2-6.7-4.5c-2.3-3-4.6-6-7-9
		c-0.4-0.5-1-0.9-1.7-1.6c1.5-0.2,2.7-0.3,3.8-0.4c3-0.1,5.9-0.3,8.9-0.2c2.2,0.1,4.1,1.3,5.6,2.9c2.3,2.4,3.6,5.4,4.9,8.4
		c-2.4,0.8-4.4-0.1-6.3-1.3c-1.3-0.8-2.5-1.7-3.7-2.6C602.6,92.9,602.5,93,602.4,93.1z"/>
	<path class="st1" d="M735.2,37.3c3.9-2.9,4.9-8.2,4-10.9c-1.5,3.7-2.2,7.5-6,9.7c-0.3-1.2-0.7-2.3-0.9-3.4c-0.7-3.2-0.6-6.4,1-9.4
		c1.5-2.8,3.9-4.5,6.6-6c1.6-0.8,3.3-1.6,5.2-2.5c0,1.6,0.1,2.9,0,4.2c-0.1,2.1-0.3,4.1-0.5,6.2s-0.3,4.2-0.7,6.2
		c-0.6,3.1-3.5,5.4-6.6,5.5C736.8,37.1,736.2,37.2,735.2,37.3z"/>
	<path class="st1" d="M746.2,76.9c-0.5-4.8,1.1-8.5,4.5-11.4c4.7-4,11.4-4.8,14.4-3.8c-1.4,2.8-2.7,5.6-4,8.3
		c-0.6,1.2-1.3,2.5-1.8,3.8c-1.8,4.6-5.5,5.8-9.8,5.2c-0.6-0.1-1.2-0.3-2.2-0.5c4.5-1.3,6.8-4.2,7.8-8.4
		C752.9,73.2,749.8,75.2,746.2,76.9z"/>
</g>
</svg>
